#!OML:ASF E:\motion texture\Top Level 1\Subject 1\Session 1\male.ASF
:FULLY-SPECIFIED
:DEGREES
226
root -2.73904 17.9536 3.67248 162.026 -86.9664 -157.041
lowerback 0.305598 -0.62568 -0.024959
upperback -2.13333 -0.825173 2.00073
thorax -2.32931 -0.403607 2.08746
lowerneck -14.8023 -3.38015 -4.82792
upperneck 11.8419 -4.74589 7.56326
head 6.32668 -1.93223 2.74017
rclavicle -7.56003e-015 1.63003e-014
rhumerus -33.9607 -28.9967 -67.6663
rradius 12.4245
rwrist 37.5327
rhand -10.6538 -24.2912
rfingers 7.12502
rthumb 15.3539 -53.7012
lclavicle -7.56003e-015 1.63003e-014
lhumerus -36.0404 11.4187 92.3791
lradius 33.4858
lwrist -23.7771
lhand -17.4476 13.2755
lfingers 7.12502
lthumb 8.80342 43.0719
rfemur -29.745 -7.19488 19.3554
rtibia 65.8171
rfoot -2.33611 -18.1202
rtoes 8.87904
lfemur -8.2394 -3.59401 -22.3286
ltibia 17.9063
lfoot -10.9541 6.44217
ltoes -1.96349
227
root -2.88014 17.958 3.66208 161.885 -87.3202 -156.837
lowerback 0.405987 -0.696723 -0.214722
upperback -2.12195 -0.920967 2.02947
thorax -2.36737 -0.446996 2.22723
lowerneck -14.7861 -3.44196 -4.91558
upperneck 11.7305 -4.81177 7.61501
head 6.29632 -1.96544 2.76423
rclavicle -2.02698e-014 -2.38542e-015
rhumerus -36.3086 -31.8417 -64.9144
rradius 11.9782
rwrist 39.3895
rhand -10.5096 -24.8883
rfingers 7.12502
rthumb 15.4928 -54.2876
lclavicle -2.02698e-014 -2.38542e-015
lhumerus -36.2043 9.15184 93.6096
lradius 35.369
lwrist -23.5416
lhand -16.0467 11.9847
lfingers 7.12502
lthumb 10.1551 41.7197
rfemur -30.6496 -7.37194 19.2199
rtibia 64.7553
rfoot -3.22498 -18.1276
rtoes 8.31269
lfemur -7.56921 -3.68672 -22.4914
ltibia 17.4962
lfoot -11.1561 6.22619
ltoes -2.19644
228
root -3.02136 17.9607 3.65092 161.872 -87.6879 -156.764
lowerback 0.508754 -0.773003 -0.415678
upperback -2.10693 -1.02432 2.05763
thorax -2.40182 -0.493903 2.37318
lowerneck -14.7795 -3.50115 -5.0054
upperneck 11.6281 -4.87387 7.66696
head 6.27038 -1.99657 2.78904
rclavicle 6.65929e-015 -1.35174e-014
rhumerus -38.6801 -34.0333 -62.2953
rradius 11.7097
rwrist 40.6879
rhand -10.3034 -25.4783
rfingers 7.12502
rthumb 15.6914 -54.8621
lclavicle 6.65929e-015 -1.35174e-014
lhumerus -36.4191 6.954 94.7037
lradius 37.2856
lwrist -23.2721
lhand -14.6296 10.8169
lfingers 7.12502
lthumb 11.522 40.4803
rfemur -31.4806 -7.56051 19.0588
rtibia 63.5267
rfoot -4.02186 -18.2408
rtoes 7.84899
lfemur -6.91422 -3.78729 -22.6637
ltibia 17.1162
lfoot -11.375 6.01036
ltoes -2.47305
229
root -3.16262 17.9617 3.63929 161.868 -88.0518 -156.695
lowerback 0.597724 -0.848904 -0.610533
upperback -2.0856 -1.12762 2.08682
thorax -2.42134 -0.541023 2.51671
lowerneck -14.7668 -3.56067 -5.08959
upperneck 11.5182 -4.93577 7.70924
head 6.2407 -2.02829 2.80989
rclavicle 2.77802e-014 -1.31198e-014
rhumerus -40.9341 -35.5408 -59.9802
rradius 11.5855
rwrist 41.4109
rhand -10.0573 -25.9942
rfingers 7.12502
rthumb 15.9284 -55.3592
lclavicle 2.77802e-014 -1.31198e-014
lhumerus -36.6628 4.83614 95.6696
lradius 39.205
lwrist -22.943
lhand -13.3636 9.77608
lfingers 7.12502
lthumb 12.7427 39.3672
rfemur -32.2459 -7.74495 18.8896
rtibia 62.1394
rfoot -4.72613 -18.4589
rtoes 7.44395
lfemur -6.28362 -3.89446 -22.8293
ltibia 16.7731
lfoot -11.6155 5.80358
ltoes -2.77038
230
root -3.30346 17.961 3.62724 161.857 -88.4129 -156.604
lowerback 0.674625 -0.926409 -0.801064
upperback -2.06521 -1.2334 2.11886
thorax -2.43417 -0.589549 2.66083
lowerneck -14.7506 -3.61358 -5.15752
upperneck 11.4036 -4.98872 7.73158
head 6.20745 -2.05661 2.82261
rclavicle -1.48716e-014 -1.43125e-014
rhumerus -42.9512 -36.3743 -58.1086
rradius 11.5777
rwrist 41.553
rhand -9.76099 -26.406
rfingers 7.12502
rthumb 16.2138 -55.748
lclavicle -1.48716e-014 -1.43125e-014
lhumerus -36.9405 2.8149 96.5144
lradius 41.1357
lwrist -22.5196
lhand -12.2192 8.93861
lfingers 7.12502
lthumb 13.8458 38.4578
rfemur -32.9524 -7.92166 18.7132
rtibia 60.5959
rfoot -5.33471 -18.7764
rtoes 7.1416
lfemur -5.68683 -4.01151 -22.9881
ltibia 16.4614
lfoot -11.8722 5.61267
ltoes -3.12784
231
root -3.44378 17.959 3.61481 161.703 -88.7647 -156.355
lowerback 0.734945 -1.00425 -0.983279
upperback -2.04534 -1.33982 2.15644
thorax -2.43743 -0.638686 2.80586
lowerneck -14.7352 -3.66004 -5.20948
upperneck 11.2867 -5.03274 7.73284
head 6.17208 -2.08147 2.82689
rclavicle 1.92448e-014 -1.19271e-014
rhumerus -44.7002 -36.695 -56.661
rradius 11.6378
rwrist 41.2921
rhand -9.43209 -26.6534
rfingers 7.12502
rthumb 16.5305 -55.9693
lclavicle 1.92448e-014 -1.19271e-014
lhumerus -37.2345 0.904528 97.2466
lradius 43.0666
lwrist -21.9872
lhand -11.1517 8.37327
lfingers 7.12502
lthumb 14.8744 37.8193
rfemur -33.605 -8.0774 18.5339
rtibia 58.8984
rfoot -5.86526 -19.1818
rtoes 6.96676
lfemur -5.12452 -4.1385 -23.1346
ltibia 16.1736
lfoot -12.1283 5.43747
ltoes -3.49546
232
root -3.58364 17.9557 3.60202 160.942 -89.1119 -155.472
lowerback 0.772819 -1.08534 -1.15497
upperback -2.03078 -1.45059 2.20052
thorax -2.43258 -0.690335 2.95151
lowerneck -14.7291 -3.69643 -5.23908
upperneck 11.1761 -5.06397 7.70913
head 6.13817 -2.10072 2.82074
rclavicle 2.26118e-015 -2.78299e-015
rhumerus -46.1814 -36.6169 -55.6081
rradius 11.7403
rwrist 40.7399
rhand -9.07696 -26.7253
rfingers 7.12502
rthumb 16.8724 -56.0123
lclavicle 2.26118e-015 -2.78299e-015
lhumerus -37.5324 -0.868023 97.8645
lradius 44.9776
lwrist -21.34
lhand -10.1111 8.07486
lfingers 7.12502
lthumb 15.8767 37.444
rfemur -34.2091 -8.21179 18.3537
rtibia 57.052
rfoot -6.32269 -19.6509
rtoes 6.93839
lfemur -4.60956 -4.27902 -23.2666
ltibia 15.9162
lfoot -12.3832 5.27578
ltoes -3.85756
233
root -3.72279 17.951 3.58882 159.068 -89.4542 -153.448
lowerback 0.790673 -1.16781 -1.32365
upperback -2.02624 -1.56328 2.25064
thorax -2.42577 -0.743034 3.10152
lowerneck -14.7214 -3.72123 -5.26414
upperneck 11.0715 -5.0803 7.68103
head 6.10463 -2.11285 2.81404
rclavicle -1.20016e-014 1.98785e-014
rhumerus -47.3576 -36.1074 -55.0331
rradius 11.8982
rwrist 39.831
rhand -8.71212 -26.6567
rfingers 7.12502
rthumb 17.2235 -55.9134
lclavicle -1.20016e-014 1.98785e-014
lhumerus -37.8365 -2.5076 98.3781
lradius 46.8432
lwrist -20.6544
lhand -9.17923 7.97638
lfingers 7.12502
lthumb 16.7739 37.2718
rfemur -34.7684 -8.3191 18.1637
rtibia 55.0603
rfoot -6.69824 -20.1404
rtoes 7.03409
lfemur -4.14321 -4.43052 -23.3904
ltibia 15.6854
lfoot -12.6317 5.12509
ltoes -4.21841
234
root -3.86199 17.9453 3.57504 148.167 -89.7841 -142.372
lowerback 0.781736 -1.25225 -1.47833
upperback -2.02867 -1.67834 2.30747
thorax -2.41028 -0.797333 3.25009
lowerneck -14.7244 -3.73648 -5.27575
upperneck 10.9873 -5.08574 7.6412
head 6.07797 -2.11952 2.80245
rclavicle -6.70898e-015 7.55382e-015
rhumerus -48.2758 -35.2748 -54.8683
rradius 12.1
rwrist 38.6643
rhand -8.34801 -26.4569
rfingers 7.12502
rthumb 17.574 -55.6826
lclavicle -6.70898e-015 7.55382e-015
lhumerus -38.1361 -4.00693 98.7865
lradius 48.6374
lwrist -19.9477
lhand -8.37388 7.9998
lfingers 7.12502
lthumb 17.5491 37.2278
rfemur -35.2706 -8.39617 17.975
rtibia 52.9136
rfoot -6.9577 -20.615
rtoes 7.25254
lfemur -3.71749 -4.59038 -23.4925
ltibia 15.4773
lfoot -12.8703 4.98439
ltoes -4.56486
235
root -4.00129 17.9384 3.56067 195.734 -90.1439 -189.739
lowerback 0.749521 -1.33755 -1.62614
upperback -2.04266 -1.79436 2.36693
thorax -2.39282 -0.852285 3.39708
lowerneck -14.7255 -3.74199 -5.26935
upperneck 10.9252 -5.08143 7.58802
head 6.05649 -2.12152 2.7847
rclavicle 1.26974e-014 -8.74653e-015
rhumerus -48.9873 -34.1819 -55.0561
rradius 12.3437
rwrist 37.2891
rhand -8.00432 -26.1588
rfingers 7.12502
rthumb 17.9047 -55.3546
lclavicle 1.26974e-014 -8.74653e-015
lhumerus -38.4341 -5.36738 99.0926
lradius 50.3364
lwrist -19.2505
lhand -7.76447 8.05885
lfingers 7.12502
lthumb 18.1355 37.2334
rfemur -35.7083 -8.43611 17.7748
rtibia 50.607
rfoot -7.07054 -21.0374
rtoes 7.61124
lfemur -3.3293 -4.75049 -23.5817
ltibia 15.2899
lfoot -13.1035 4.84915
ltoes -4.9387
236
root -4.14113 17.9306 3.54567 175.882 -90.4531 -169.673
lowerback 0.696975 -1.42323 -1.77243
upperback -2.06122 -1.91072 2.43002
thorax -2.36774 -0.907575 3.54636
lowerneck -14.747 -3.73751 -5.24849
upperneck 10.8978 -5.06626 7.52261
head 6.04795 -2.11773 2.76162
rclavicle 3.21286e-014 -2.46493e-014
rhumerus -49.5449 -32.9274 -55.4976
rradius 12.6155
rwrist 35.7967
rhand -7.69005 -25.806
rfingers 7.12502
rthumb 18.2071 -54.9739
lclavicle 3.21286e-014 -2.46493e-014
lhumerus -38.7199 -6.59292 99.3059
lradius 51.9453
lwrist -18.5551
lhand -7.29795 8.17534
lfingers 7.12502
lthumb 18.5842 37.3076
rfemur -36.0693 -8.43266 17.5565
rtibia 48.1327
rfoot -6.9827 -21.3879
rtoes 8.13088
lfemur -2.96098 -4.90233 -23.661
ltibia 15.1106
lfoot -13.3272 4.71666
ltoes -5.34311
237
root -4.28177 17.9217 3.53004 172.009 -90.7606 -165.575
lowerback 0.628923 -1.5082 -1.92075
upperback -2.08585 -2.026 2.49305
thorax -2.33939 -0.962366 3.69617
lowerneck -14.7739 -3.72128 -5.21074
upperneck 10.8985 -5.0391 7.44804
head 6.04775 -2.10771 2.73406
rclavicle -3.26255e-014 3.89618e-014
rhumerus -50.0209 -31.6116 -56.0726
rradius 12.8964
rwrist 34.2966
rhand -7.42053 -25.4077
rfingers 7.12502
rthumb 18.4663 -54.5511
lclavicle -3.26255e-014 3.89618e-014
lhumerus -38.9917 -7.693 99.4322
lradius 53.4516
lwrist -17.8603
lhand -6.99186 8.34585
lfingers 7.12502
lthumb 18.8787 37.4497
rfemur -36.3461 -8.37883 17.312
rtibia 45.4955
rfoot -6.66746 -21.6535
rtoes 8.73773
lfemur -2.60108 -5.03923 -23.7359
ltibia 14.9348
lfoot -13.544 4.5947
ltoes -5.80602
